<svg width="43" height="42" viewBox="0 0 43 42" fill="none" xmlns="http://www.w3.org/2000/svg">
<path d="M16.8113 4.20042C13.4673 4.20042 10.2603 5.52881 7.89576 7.89335C5.53121 10.2579 4.20282 13.4649 4.20282 16.8089C4.20282 20.1529 5.53121 23.3599 7.89576 25.7244C10.2603 28.089 13.4673 29.4174 16.8113 29.4174C20.1553 29.4174 23.3623 28.089 25.7268 25.7244C28.0914 23.3599 29.4198 20.1529 29.4198 16.8089C29.4198 13.4649 28.0914 10.2579 25.7268 7.89335C23.3623 5.52881 20.1553 4.20042 16.8113 4.20042ZM1.03844e-07 16.8089C0.000383142 14.1335 0.639287 11.4968 1.86361 9.11802C3.08794 6.73921 4.86233 4.68695 7.03932 3.13182C9.2163 1.57668 11.733 0.563576 14.3803 0.1767C17.0276 -0.210177 19.7289 0.0403488 22.2599 0.907456C24.7909 1.77456 27.0784 3.23321 28.9322 5.16217C30.7861 7.09112 32.1528 9.43468 32.9188 11.9981C33.6848 14.5615 33.8279 17.2707 33.3363 19.9005C32.8447 22.5303 31.7325 25.0049 30.0922 27.1184L41.4125 38.4387C41.7953 38.835 42.0071 39.3659 42.0023 39.9168C41.9975 40.4678 41.7765 40.9949 41.3869 41.3845C40.9973 41.7741 40.4702 41.9951 39.9192 41.9999C39.3683 42.0047 38.8374 41.7929 38.4411 41.4101L27.1208 30.0898C24.6358 32.0191 21.6593 33.2124 18.5297 33.534C15.4002 33.8556 12.2432 33.2926 9.41778 31.909C6.59234 30.5253 4.21184 28.3767 2.54696 25.7073C0.882086 23.0379 -0.000349508 19.9549 1.03844e-07 16.8089V16.8089Z" fill="#0D0D0D"/>
</svg>
